<?xml version="1.0" encoding="UTF-8" standalone="no"?>
<svg
   xmlns:dc="http://purl.org/dc/elements/1.1/"
   xmlns:cc="http://creativecommons.org/ns#"
   xmlns:rdf="http://www.w3.org/1999/02/22-rdf-syntax-ns#"
   xmlns:svg="http://www.w3.org/2000/svg"
   xmlns="http://www.w3.org/2000/svg"
   xmlns:sodipodi="http://sodipodi.sourceforge.net/DTD/sodipodi-0.dtd"
   xmlns:inkscape="http://www.inkscape.org/namespaces/inkscape"
   width="11in"
   height="8.6000004in"
   version="1.1"
   id="svg469"
   sodipodi:docname="spider.svg"
   inkscape:version="1.0.2 (e86c870879, 2021-01-15)">
  <sodipodi:namedview
     pagecolor="#ffffff"
     bordercolor="#666666"
     borderopacity="1"
     objecttolerance="10"
     gridtolerance="10"
     guidetolerance="10"
     inkscape:pageopacity="0"
     inkscape:pageshadow="2"
     inkscape:window-width="1920"
     inkscape:window-height="1023"
     id="namedview471"
     showgrid="false"
     inkscape:document-units="mm"
     units="in"
     inkscape:zoom="1"
     inkscape:cx="558.21435"
     inkscape:cy="422.70342"
     inkscape:window-x="0"
     inkscape:window-y="0"
     inkscape:window-maximized="1"
     inkscape:current-layer="g467"
     inkscape:document-rotation="0" />
  <metadata
     id="metadata473">
    <rdf:RDF>
      <cc:Work
         rdf:about="">
        <dc:format>image/svg+xml</dc:format>
        <dc:type
           rdf:resource="http://purl.org/dc/dcmitype/StillImage" />
        <dc:title></dc:title>
      </cc:Work>
    </rdf:RDF>
  </metadata>
  <desc
     id="desc29">/home/sygi/Downloads/box-20181209_202912_230211.dxf - scale = 25.400000, origin = (0.000000, 0.000000), method = file</desc>
  <defs
     id="defs41">
    <marker
       style="overflow:visible"
       refY="0"
       refX="0"
       orient="auto"
       id="DistanceX">
      <path
         inkscape:connector-curvature="0"
         id="path31"
         style="stroke:#000000;stroke-width:0.5"
         d="M 3,-3 -3,3 M 0,-5 V 5" />
    </marker>
    <pattern
       y="0"
       x="0"
       width="8"
       patternUnits="userSpaceOnUse"
       id="Hatch"
       height="8">
      <path
         id="path34"
         stroke-width="0.25"
         stroke="#000000"
         linecap="square"
         d="M8 4 l-4,4" />
      <path
         id="path36"
         stroke-width="0.25"
         stroke="#000000"
         linecap="square"
         d="M6 2 l-4,4" />
      <path
         id="path38"
         stroke-width="0.25"
         stroke="#000000"
         linecap="square"
         d="M4 0 l-4,4" />
    </pattern>
  </defs>
  <g
     transform="translate(0,-6.9514334e-5)"
     id="g467"
     inkscape:label="0"
     inkscape:groupmode="layer">
    <g
       id="g881"
       transform="rotate(90,555.2434,549.77241)">
      <text
         id="text45"
         y="997.20184"
         x="25.54513"
         style="font-size:10.6665px;line-height:125%;font-family:Arial;fill:#000000;stroke:#000000;stroke-width:1.88976;stroke-miterlimit:4;stroke-dasharray:none;stroke-opacity:1"><tspan
           style="stroke:#000000;stroke-width:1.88976;stroke-miterlimit:4;stroke-dasharray:none;stroke-opacity:1"
           y="997.20184"
           x="25.54513"
           id="tspan43"
           sodipodi:role="line">Cut Width: 0.0000mm</tspan></text>
      <text
         id="text49"
         y="1016.1003"
         x="25.54513"
         style="font-size:10.6665px;line-height:125%;font-family:Arial;fill:#000000;stroke:#000000;stroke-width:1.88976;stroke-miterlimit:4;stroke-dasharray:none;stroke-opacity:1"><tspan
           style="stroke:#000000;stroke-width:1.88976;stroke-miterlimit:4;stroke-dasharray:none;stroke-opacity:1"
           y="1016.1003"
           x="25.54513"
           id="tspan47"
           sodipodi:role="line">Material Thickness: 3.0000mm</tspan></text>
      <text
         id="text53"
         y="1034.9949"
         x="25.54513"
         style="font-size:10.6665px;line-height:125%;font-family:Arial;fill:#000000;stroke:#000000;stroke-width:1.88976;stroke-miterlimit:4;stroke-dasharray:none;stroke-opacity:1"><tspan
           style="stroke:#000000;stroke-width:1.88976;stroke-miterlimit:4;stroke-dasharray:none;stroke-opacity:1"
           y="1034.9949"
           x="25.54513"
           id="tspan51"
           sodipodi:role="line">W x D x H: 38.00mm x 79.00mm x 42.00mm</tspan></text>
      <path
         inkscape:connector-curvature="0"
         id="path63"
         style="fill:none;stroke:#000000;stroke-width:1.88976;stroke-miterlimit:4;stroke-dasharray:none;stroke-opacity:1"
         d="M 6.647052,1091.6884 H 823.01405" />
      <path
         inkscape:connector-curvature="0"
         id="path65"
         style="fill:none;stroke:#000000;stroke-width:1.88976;stroke-miterlimit:4;stroke-dasharray:none;stroke-opacity:1"
         d="M 823.01405,1091.6884 V 63.670391" />
      <path
         inkscape:connector-curvature="0"
         id="path67"
         style="fill:none;stroke:#000000;stroke-width:1.88976;stroke-miterlimit:4;stroke-dasharray:none;stroke-opacity:1"
         d="M 823.01405,63.670391 H 6.647052" />
      <path
         inkscape:connector-curvature="0"
         id="path69"
         style="fill:none;stroke:#000000;stroke-width:1.88976;stroke-miterlimit:4;stroke-dasharray:none;stroke-opacity:1"
         d="M 6.647052,63.670391 V 1091.6884" />
      <text
         id="text73"
         y="101.46355"
         x="25.54513"
         style="font-size:10.6665px;line-height:125%;font-family:Arial;fill:#000000;stroke:#000000;stroke-width:1.88976;stroke-miterlimit:4;stroke-dasharray:none;stroke-opacity:1"><tspan
           style="stroke:#000000;stroke-width:1.88976;stroke-miterlimit:4;stroke-dasharray:none;stroke-opacity:1"
           y="101.46355"
           x="25.54513"
           id="tspan71"
           sodipodi:role="line">Bounding Box: 216.00mm x 272.00mm</tspan></text>
      <path
         id="path648"
         d="m 486.65618,400.02741 v 0.0156 0 31.74805 0 0.0156 0 31.7168 0 0.0156 0 31.74805 0 0.0156 0 31.71485 0 0.0176 0 31.74609 0 0.0156 h -28.73826 v -0.0156 h -0.0176 v -11.32227 h -28.6914 v 11.32227 h -0.0156 v 0.0156 h -28.72461 v -0.0156 h -0.0156 V 547.45898 H 371.7617 v 11.32227 h -0.0176 v 0.0156 h -17.38476 v -0.0156 h -0.0156 v -31.73047 h -11.32226 v -0.0156 h -0.0156 v -31.74805 h 0.0156 v -0.0176 h 11.32226 v -31.71484 h -11.32226 v -0.0156 h -0.0156 v -31.74804 h 0.0156 v -0.0156 h 11.32226 v -31.73242 h 0.0156 v -0.0156 z"
         style="fill:none;stroke:#000000;stroke-width:1.88976"
         inkscape:connector-curvature="0"
         sodipodi:nodetypes="ccccccccccccccccccccccccccccccccccccccccccccccccccccccccccccc" />
      <path
         id="path646"
         d="m 371.74414,596.56055 v 0.0156 h -0.0156 v 11.32227 H 354.3594 v 0.0176 h -0.0156 v 15.78906 h -11.32227 v 0.0156 h -0.0156 v 27.14258 h 0.0156 v 0.0156 h 11.32227 v 27.11328 h -11.32227 v 0.0156 h -0.0156 v 27.14258 h 0.0156 v 0.0156 h 11.32227 v 27.11328 h -11.32227 v 0.0156 h -0.0156 v 27.14258 h 0.0156 v 0.0156 h 11.32227 v 27.11133 h -11.32227 v 0.0176 h -0.0156 v 27.14258 h 0.0156 v 0.0156 h 11.32227 v 27.11133 h -11.32227 v 0.0176 h -0.0156 v 27.14258 h 0.0156 v 0.0156 h 11.32227 v 15.78907 h 0.0156 v 0.0156 h 17.36914 v 11.32422 h 0.0156 v 0.0156 h 28.72461 v -0.0156 h 0.0156 v -11.32422 h 28.69335 v 11.32422 h 0.0156 v 0.0156 h 28.72461 v -0.0156 h 0.0156 v -11.32422 h 28.7226 v -0.0156 0 -15.78907 0 -0.0156 0 -27.14258 0 -0.0176 0 -27.11133 0 -0.0156 0 -27.14258 0 -0.0176 0 -27.11133 0 -0.0156 0 -27.14258 0 -0.0156 0 -27.11328 0 -0.0156 0 -27.14258 0 -0.0156 0 -27.11328 0 -0.0156 0 -27.14256 0 -0.0156 0 -15.78906 0 -0.0176 h -28.7226 v -11.32227 h -0.0156 v -0.0156 H 429.1933 v 0.0156 h -0.0156 v 11.32227 h -28.69335 v -11.32227 h -0.0156 v -0.0156 z"
         style="fill:none;stroke:#000000;stroke-width:1.88976"
         inkscape:connector-curvature="0"
         sodipodi:nodetypes="ccccccccccccccccccccccccccccccccccccccccccccccccccccccccccccccccccccccccccccccccccccccccccccccccccccccccccccccccccccccccccccc"
         transform="translate(0,6.9514334e-5)" />
      <path
         id="path644"
         d="m 314.34383,596.56054 h -0.0156 v -0.0156 h -31.74609 v 0.0156 h -0.0156 v 11.32422 h -31.71679 v -11.32422 h -0.0156 v -0.0156 H 219.0861 v 0.0156 h -0.0156 v 11.32422 h -31.71484 v -11.32422 h -0.0176 v -0.0156 h -31.74805 v 0.0156 h -0.0156 v 287.24218 h 0.0156 v 0.0156 h 31.73242 v 11.32226 h 0.0156 v 0.0156 h 31.74804 v -0.0156 h 0.0156 v -11.32223 h 31.7168 v 11.32226 h 0.0156 v 0.0156 h 31.74805 v -0.0156 h 0.0156 v -11.32226 h 31.73047 v -0.0156 h 0.0156 v -15.80469 h -0.0156 v -0.0176 h -11.32226 v -27.11133 h 11.32226 v -0.0156 h 0.0156 v -27.14257 h -0.0156 v -0.0176 h -11.32226 v -27.11133 h 11.32226 v -0.0156 h 0.0156 v -27.14257 h -0.0156 v -0.0176 h -11.32226 v -27.11133 h 11.32226 v -0.0156 h 0.0156 v -27.14458 h -0.0156 v -0.0156 H 303.00593 V 678.0078 h 11.32226 v -0.0156 h 0.0156 v -27.14452 h -0.0156 v -0.0156 h -11.32226 v -27.11133 h 11.32226 v -0.0156 h 0.0156 z"
         style="fill:none;stroke:#000000;stroke-width:1.88976"
         inkscape:connector-curvature="0" />
      <path
         id="path637"
         d="m 343.02148,920.93359 v 0.0176 h -0.0156 v 31.7461 h 0.0156 v 0.0156 h 11.32227 v 31.7168 h -11.32227 v 0.0156 h -0.0156 v 31.74811 h 0.0156 v 0.016 h 11.32227 v 31.7148 h -11.32227 v 0.016 h -0.0156 v 31.748 h 0.0156 v 0.02 h 143.63471 v -0.02 0 -31.7305 0 -0.018 0 -31.7461 0 -0.018 0 -31.71488 0 -0.0156 0 -31.74804 0 -0.0156 0 -31.73047 0 -0.0176 l -28.74702,0.009 v 0 0 l -0.009,11.32911 h -28.69141 v -11.32031 h -0.0156 v -0.0176 h -28.72461 v 0.0176 h -0.0156 v 11.32031 h -28.6914 v -11.32031 h -0.0176 v -0.0176 z"
         style="fill:none;stroke:#000000;stroke-width:1.88976"
         inkscape:connector-curvature="0"
         sodipodi:nodetypes="ccccccccccccccccccccccccccccccccccccccccccccccccccccccccccccc"
         transform="translate(0,6.9514334e-5)" />
      <path
         style="fill:none;fill-opacity:1;stroke:#000000;stroke-width:1.88976;stroke-miterlimit:4;stroke-dasharray:none;stroke-opacity:1"
         d="m 602.30273,592.65625 v 59.52734 h -11.33789 v 28.34571 h 11.33789 v 59.52734 h 51.96875 v 11.33984 h 28.34571 v -11.33984 h 51.96875 v -59.7168 a 114,114 0 0 1 -95.63477,-87.68359 z"
         id="rect5097"
         transform="translate(0,6.9514334e-5)" />
      <rect
         style="fill:none;fill-opacity:1;stroke:#000000;stroke-width:1.88976;stroke-miterlimit:4;stroke-dasharray:none;stroke-opacity:1"
         id="rect5099-3"
         width="28.346457"
         height="11.338583"
         x="406.31183"
         y="740.1969" />
      <rect
         y="740.18127"
         x="215.13213"
         height="11.338583"
         width="28.346457"
         id="rect5118"
         style="fill:none;fill-opacity:1;stroke:#000000;stroke-width:1.88976;stroke-miterlimit:4;stroke-dasharray:none;stroke-opacity:1" />
    </g>
  </g>
</svg>
