<?xml version="1.0" encoding="UTF-8" standalone="no"?>
<svg
   xmlns:dc="http://purl.org/dc/elements/1.1/"
   xmlns:cc="http://creativecommons.org/ns#"
   xmlns:rdf="http://www.w3.org/1999/02/22-rdf-syntax-ns#"
   xmlns:svg="http://www.w3.org/2000/svg"
   xmlns="http://www.w3.org/2000/svg"
   xmlns:sodipodi="http://sodipodi.sourceforge.net/DTD/sodipodi-0.dtd"
   xmlns:inkscape="http://www.inkscape.org/namespaces/inkscape"
   inkscape:version="0.92.2pre0 (973e216, 2017-07-25)"
   sodipodi:docname="time-stories-0_15.svg"
   id="svg730"
   version="1.1"
   height="390mm"
   width="370mm">
  <sodipodi:namedview
     inkscape:current-layer="g728"
     inkscape:window-maximized="0"
     inkscape:window-y="10"
     inkscape:window-x="18"
     inkscape:cy="780.33097"
     inkscape:cx="430.07443"
     inkscape:zoom="0.45254834"
     showgrid="false"
     id="namedview732"
     inkscape:window-height="860"
     inkscape:window-width="1614"
     inkscape:pageshadow="2"
     inkscape:pageopacity="0"
     guidetolerance="10"
     gridtolerance="10"
     objecttolerance="10"
     borderopacity="1"
     bordercolor="#666666"
     pagecolor="#ffffff"
     inkscape:document-units="mm"
     units="mm"
     inkscape:measure-start="532.813,621.094"
     inkscape:measure-end="532.813,512.5"
     showguides="true"
     inkscape:guide-bbox="true"
     inkscape:snap-midpoints="false"
     inkscape:snap-grids="false"
     inkscape:snap-to-guides="false"
     inkscape:snap-nodes="false"
     inkscape:snap-global="false">
    <sodipodi:guide
       position="324.77209,1039.805"
       orientation="1,0"
       id="guide77"
       inkscape:locked="false" />
    <sodipodi:guide
       position="302.83673,237.26513"
       orientation="0,1"
       id="guide83"
       inkscape:locked="false" />
  </sodipodi:namedview>
  <metadata
     id="metadata734">
    <rdf:RDF>
      <cc:Work
         rdf:about="">
        <dc:format>image/svg+xml</dc:format>
        <dc:type
           rdf:resource="http://purl.org/dc/dcmitype/StillImage" />
        <dc:title></dc:title>
      </cc:Work>
    </rdf:RDF>
  </metadata>
  <desc
     id="desc2">/home/sygi/Downloads/box-20181215_145840_422492.dxf - scale = 25.400000, origin = (0.000000, 0.000000), method = file</desc>
  <defs
     id="defs14">
    <marker
       style="overflow:visible"
       refY="0"
       refX="0"
       orient="auto"
       id="DistanceX">
      <path
         id="path4"
         style="stroke:#000000;stroke-width:0.5"
         d="M 3,-3 -3,3 M 0,-5 V 5"
         inkscape:connector-curvature="0" />
    </marker>
    <pattern
       y="0"
       x="0"
       width="8"
       patternUnits="userSpaceOnUse"
       id="Hatch"
       height="8">
      <path
         id="path7"
         stroke-width="0.25"
         stroke="#000000"
         linecap="square"
         d="M8 4 l-4,4" />
      <path
         id="path9"
         stroke-width="0.25"
         stroke="#000000"
         linecap="square"
         d="M6 2 l-4,4" />
      <path
         id="path11"
         stroke-width="0.25"
         stroke="#000000"
         linecap="square"
         d="M4 0 l-4,4" />
    </pattern>
  </defs>
  <g
     id="g728"
     inkscape:label="0"
     inkscape:groupmode="layer"
     transform="translate(0,351.49603)">
    <text
       id="text18"
       y="1028.0232"
       x="18.903788"
       style="font-size:10.66658211px;line-height:125%;font-family:Arial;fill:#000000;stroke:#000000;stroke-width:0.37795275;stroke-miterlimit:4;stroke-dasharray:none;stroke-opacity:1">
      <tspan
         style="stroke:#000000;stroke-width:0.37795275;stroke-miterlimit:4;stroke-dasharray:none;stroke-opacity:1"
         y="1028.0232"
         x="18.903788"
         id="tspan16"
         sodipodi:role="line">Cut Width: 0.0000mm</tspan>
    </text>
    <text
       id="text22"
       y="1046.9216"
       x="18.903788"
       style="font-size:10.66658211px;line-height:125%;font-family:Arial;fill:#000000;stroke:#000000;stroke-width:0.37795275;stroke-miterlimit:4;stroke-dasharray:none;stroke-opacity:1">
      <tspan
         style="stroke:#000000;stroke-width:0.37795275;stroke-miterlimit:4;stroke-dasharray:none;stroke-opacity:1"
         y="1046.9216"
         x="18.903788"
         id="tspan20"
         sodipodi:role="line">Material Thickness: 3.0000mm</tspan>
    </text>
    <text
       id="text26"
       y="1065.8201"
       x="18.903788"
       style="font-size:10.66658211px;line-height:125%;font-family:Arial;fill:#000000;stroke:#000000;stroke-width:0.37795275;stroke-miterlimit:4;stroke-dasharray:none;stroke-opacity:1">
      <tspan
         style="stroke:#000000;stroke-width:0.37795275;stroke-miterlimit:4;stroke-dasharray:none;stroke-opacity:1"
         y="1065.8201"
         x="18.903788"
         id="tspan24"
         sodipodi:role="line">W x D x H: 125.00mm x 160.00mm x 31.00mm</tspan>
    </text>
    <text
       id="text30"
       y="1084.7185"
       x="18.903788"
       style="font-size:10.66658211px;line-height:125%;font-family:Arial;fill:#000000;stroke:#000000;stroke-width:0.37795275;stroke-miterlimit:4;stroke-dasharray:none;stroke-opacity:1">
      <tspan
         style="stroke:#000000;stroke-width:0.37795275;stroke-miterlimit:4;stroke-dasharray:none;stroke-opacity:1"
         y="1084.7185"
         x="18.903788"
         id="tspan28"
         sodipodi:role="line">Produced by box designer v2.3.0 on 12/15/2018 at 14:58:40</tspan>
    </text>
    <text
       id="text34"
       y="1103.613"
       x="18.903788"
       style="font-size:10.66658211px;line-height:125%;font-family:Arial;fill:#000000;stroke:#000000;stroke-width:0.37795275;stroke-miterlimit:4;stroke-dasharray:none;stroke-opacity:1">
      <tspan
         style="stroke:#000000;stroke-width:0.37795275;stroke-miterlimit:4;stroke-dasharray:none;stroke-opacity:1"
         y="1103.613"
         x="18.903788"
         id="tspan32"
         sodipodi:role="line">http://boxdesigner.connectionlab.org</tspan>
    </text>
    <path
       inkscape:connector-curvature="0"
       id="path36"
       style="fill:none;stroke:#000000;stroke-width:0.37795275;stroke-miterlimit:4;stroke-dasharray:none;stroke-opacity:1"
       d="M 0.00694439,1122.5127 H 1757.4729" />
    <path
       inkscape:connector-curvature="0"
       id="path38"
       style="fill:none;stroke:#000000;stroke-width:0.37795275;stroke-miterlimit:4;stroke-dasharray:none;stroke-opacity:1"
       d="M 1757.4729,1122.5127 V -434.64029" />
    <path
       inkscape:connector-curvature="0"
       id="path40"
       style="fill:none;stroke:#000000;stroke-width:0.37795275;stroke-miterlimit:4;stroke-dasharray:none;stroke-opacity:1"
       d="M 1757.4729,-434.64029 H 0.00694439" />
    <path
       inkscape:connector-curvature="0"
       id="path42"
       style="fill:none;stroke:#000000;stroke-width:0.37795275;stroke-miterlimit:4;stroke-dasharray:none;stroke-opacity:1"
       d="M 0.00694439,-434.64029 V 1122.5127" />
    <text
       id="text46"
       y="-396.84393"
       x="18.903788"
       style="font-size:10.66658211px;line-height:125%;font-family:Arial;fill:#000000;stroke:#000000;stroke-width:0.37795275;stroke-miterlimit:4;stroke-dasharray:none;stroke-opacity:1">
      <tspan
         style="stroke:#000000;stroke-width:0.37795275;stroke-miterlimit:4;stroke-dasharray:none;stroke-opacity:1"
         y="-396.84393"
         x="18.903788"
         id="tspan44"
         sodipodi:role="line">Bounding Box: 465.00mm x 412.00mm</tspan>
    </text>
    <path
       id="path1047"
       transform="translate(0,-351.49603)"
       d="m 174.11719,290.41992 v 0.2832 11.05274 H 49.859375 V 334.8457 H 38.525391 v 28.91211 h 11.333984 v 36.83008 H 328.23633 v -36.83008 h 11.33398 V 334.8457 H 328.23633 V 301.75586 H 203.03125 v -11.33594 z"
       style="stroke:#000000;stroke-width:1.88976377956;fill:none" />
    <path
       id="path1045"
       transform="translate(0,-351.49603)"
       d="m 497.10156,291.32031 v 0.28321 11.01757 H 366.5293 v 33.08985 H 355.19531 V 364.625 h 11.33399 v 36.82812 H 652.44922 V 364.625 H 663.7832 V 335.71094 H 652.44922 V 302.62109 H 526.01367 v -11.30078 z"
       style="stroke:#000000;stroke-width:1.88976377956;fill:none" />
    <path
       id="path1043"
       transform="translate(0,-351.49603)"
       d="m 44.480469,418.41797 v 0.0156 h -0.01758 v 46.59766 H 33.140625 v 0.0156 h -0.01758 v 39.62304 h 0.01758 v 0.0156 h 11.322266 v 39.03906 h 0.01758 v 0.0156 h 17.017578 v -0.0156 h 0.01563 v -11.32422 h 27.191406 v 11.32422 h 0.01953 v 0.0156 h 28.357421 v -0.0156 h 0.0156 v -11.32422 h 27.1914 v 11.32422 h 0.0176 v 0.0156 h 28.35547 v -0.0156 h 0.0176 v -11.32422 h 27.1914 v 11.32422 h 0.0156 v 0.0156 h 28.35742 v -0.0156 h 0.0156 v -11.32422 h 27.19335 v 11.32422 h 0.0156 v 0.0156 h 28.35547 v -0.0156 h 0.0176 v -11.32422 h 27.1914 v 11.32422 h 0.0156 v 0.0156 h 28.35742 v -0.0156 h 0.0156 v -11.32422 h 27.1914 v 11.32422 h 0.0156 v 0.0156 h 28.35742 v -0.0156 h 0.0176 v -11.32422 h 27.1914 v 11.32422 h 0.0156 v 0.0156 h 28.35742 v -0.0156 h 0.0156 v -11.32422 h 27.19141 v 11.32422 h 0.0156 v 0.0156 h 28.35742 v -0.0156 h 0.0156 v -39.62109 h -0.0156 v -0.0176 h -11.32227 v -38.45508 h 11.32227 v -0.0176 h 0.0156 v -47.17969 h -0.0156 v -0.0156 h -0.28321 z"
       style="stroke:#000000;stroke-width:1.88976377956;fill:none" />
    <path
       id="path1041"
       transform="translate(0,-351.49603)"
       d="m 558.00977,441.63281 v 29.43946 h -11.33399 v 28.91406 h 11.33399 v 40.48047 h 78.08203 v -40.48047 h 11.33398 v -28.91406 h -0.2832 -11.05078 v -29.43946 z"
       style="stroke:#000000;stroke-width:1.88976377956;fill:none" />
    <path
       id="path1039"
       transform="translate(0,-351.49603)"
       d="m 199.45898,551.77148 v 0.0156 h -0.0156 v 11.32227 h -16.4375 v 0.0156 h -0.0156 v 9.88281 h -11.32226 v 0.0156 h -0.0156 v 29.36523 h 0.0156 v 0.0156 h 11.32226 v 28.19531 h -11.32226 v 0.0176 h -0.0156 v 29.36328 h 0.0156 v 0.0156 h 11.32226 v 28.19532 h -11.32226 v 0.0176 h -0.0156 v 29.36524 h 0.0156 v 0.0156 h 11.32226 v 28.19532 h -11.32226 v 0.0156 h -0.0156 v 29.36524 h 0.0156 v 0.0156 h 11.32226 v 28.19531 h -11.32226 v 0.0156 h -0.0156 v 29.36523 h 0.0156 v 0.0156 h 11.32226 v 28.19531 h -11.32226 v 0.0156 h -0.0156 v 29.36523 h 0.0156 v 0.0156 h 11.32226 v 28.19727 h -11.32226 v 0.0156 h -0.0156 v 29.36329 h 0.0156 v 0.0156 h 11.32226 v 28.19727 h -11.32226 v 0.0156 h -0.0156 v 29.36328 h 0.0156 v 0.016 h 11.32226 v 28.1992 h -11.32226 v 0.016 h -0.0156 v 29.3613 h 0.0156 v 0.018 h 11.32226 v 28.1972 h -11.32226 v 0.018 h -0.0156 v 29.3614 h 0.0156 v 0.017 h 11.32226 v 17.4434 h 0.0156 v 0.016 h 16.4375 v 11.3223 h 0.0156 v 0.016 h 28.35547 v -0.016 h 0.0156 v -11.3223 h 27.19336 v 11.3223 h 0.0156 v 0.016 h 28.35742 v -0.016 h 0.0156 v -11.3223 h 27.19141 v 11.3223 h 0.0176 v 0.016 h 28.35547 v -0.016 h 0.0156 v -11.3223 h 27.19336 v 11.3223 h 0.0156 v 0.016 h 28.35742 v -0.016 h 0.0156 v -11.3223 h 27.18945 v 11.3223 h 0.0156 v 0.016 h 28.35937 v -0.016 h 0.0156 v -11.3223 h 27.18945 v 11.3223 h 0.0176 v 0.016 h 28.35937 v -0.016 h 0.0156 v -11.3223 h 27.18945 v 11.3223 h 0.0176 v 0.016 h 28.35742 v -0.016 h 0.0156 v -11.3223 h 27.1914 v 11.3223 h 0.0156 v 0.016 h 28.35742 v -0.016 h 0.0176 v -11.3223 h 16.4375 v -0.016 h 0.0176 v -17.4434 h 11.32226 v -0.017 h 0.0156 v -29.3614 h -0.0156 v -0.018 h -11.32226 v -28.1972 h 11.32226 v -0.018 h 0.0156 v -29.3613 h -0.0156 v -0.016 h -11.32226 v -28.1992 h 11.32226 v -0.016 h 0.0156 v -29.36328 h -0.0156 v -0.0156 h -11.32226 v -28.19727 h 11.32226 v -0.0156 h 0.0156 v -29.36329 h -0.0156 v -0.0156 h -11.32226 v -28.19531 h 11.32226 v -0.0156 h 0.0156 v -29.36718 h -0.0156 v -0.0156 h -11.32226 v -28.19531 h 11.32226 v -0.0156 h 0.0156 v -29.36523 h -0.0156 v -0.0156 h -11.32226 v -28.19531 h 11.32226 v -0.0156 h 0.0156 v -29.36524 h -0.0156 v -0.0156 h -11.32226 v -28.19532 h 11.32226 v -0.0156 h 0.0156 v -29.36524 h -0.0156 v -0.0176 h -11.32226 v -28.19532 h 11.32226 v -0.0156 h 0.0156 v -29.36328 h -0.0156 v -0.0176 H 633.35352 V 602.4043 h 11.32226 v -0.0156 h 0.0156 v -29.36523 h -0.0156 v -0.0156 H 633.35352 V 563.125 h -0.0176 v -0.0156 h -16.4375 v -11.32227 h -0.0176 v -0.0156 h -28.35742 v 0.0156 h -0.0156 v 11.32227 h -27.1914 v -11.32227 h -0.0156 v -0.0156 h -28.35742 v 0.0156 h -0.0176 v 11.32227 h -27.18945 v -11.32227 h -0.0156 v -0.0156 h -28.35742 v 0.0156 h -0.0176 v 11.32227 h -27.1914 v -11.32227 h -0.0156 v -0.0156 h -28.35742 v 0.0156 h -0.0156 v 11.32227 h -27.1914 v -11.32227 h -0.0156 v -0.0156 h -28.35742 v 0.0156 h -0.0156 v 11.32227 h -27.19336 v -11.32227 h -0.0156 v -0.0156 h -28.35547 v 0.0156 h -0.0176 v 11.32227 h -27.19141 v -11.32227 h -0.0156 v -0.0156 h -28.35742 v 0.0156 h -0.0156 v 11.32227 h -27.19336 v -11.32227 h -0.0156 v -0.0156 z"
       style="stroke:#000000;stroke-width:1.88976377956;fill:none" />
    <path
       id="path1037"
       transform="translate(0,-351.49603)"
       d="m 80.912109,553.76953 -47.179687,0.002 v 0.0176 h -0.01563 v 586.39064 h 0.01563 v 0.016 h 46.597656 v 11.3223 h 0.01563 v 0.016 H 119.9668 v -0.016 h 0.0156 v -11.3223 h 39.03906 v -0.016 h 0.0156 v -18.0274 h -0.0156 v -0.016 h -11.32226 v -28.1972 h 11.32226 v -0.016 h 0.0156 v -29.3633 h -0.0156 v -0.018 h -11.32226 v -28.1973 h 11.32226 v -0.018 h 0.0156 v -29.3613 h -0.0156 v -0.018 h -11.32226 v -28.19529 h 11.32226 v -0.0195 h 0.0156 v -29.36329 h -0.0156 v -0.0156 H 147.69922 V 921.1582 h 11.32226 v -0.0156 h 0.0156 V 891.7793 h -0.0156 v -0.0156 h -11.32226 v -28.19726 h 11.32226 v -0.0156 h 0.0156 v -29.36133 h -0.0156 v -0.0156 h -11.32226 v -28.19531 h 11.32226 v -0.0156 h 0.0156 V 776.5957 h -0.0156 v -0.0156 h -11.32226 v -28.19531 h 11.32226 v -0.0156 h 0.0156 v -29.36523 h -0.0156 v -0.0156 h -11.32226 v -28.19531 h 11.32226 v -0.0156 h 0.0156 v -29.36523 h -0.0156 v -0.0156 h -11.32226 v -28.19726 h 11.32226 v -0.0156 h 0.0156 v -29.36328 h -0.0156 v -0.0176 h -11.32226 v -28.19531 h 11.32226 v -0.0156 h 0.0156 v -21.80469 h -0.0156 v -0.0176 h -39.62109 v 0.0176 h -0.0156 v 11.32031 H 80.927734 v -11.32031 h -0.01563 z"
       style="stroke:#000000;stroke-width:1.88976377956;fill:none" />
    <path
       id="path1035"
       transform="translate(0,-351.49603)"
       d="m 1055.3301,667.43555 v 0.2832 11.05078 h -36.8653 v 575.08397 h 36.8653 v 11.334 h 28.916 v -11.334 h 33.0547 v -124.2597 h 11.3008 v -28.9122 h -11.3008 V 976.98828 h 11.3008 v -28.91211 h -11.3008 v -123.6914 h 11.3008 V 795.4707 h -11.3008 V 678.76953 h -33.0547 v -11.33398 z"
       style="stroke:#000000;stroke-width:1.88976377956;fill:none" />
    <path
       id="path1033"
       transform="translate(0,-351.49603)"
       d="m 765.21484,667.77148 v 0.0156 h -0.0176 v 11.32227 H 726.1582 v 0.0156 h -0.0156 v 10.4668 h 0.0156 v 0.0176 h 11.32227 v 28.19726 H 726.1582 v 0.0156 h -0.0156 v 29.36328 h 0.0156 v 0.0156 h 11.32227 v 28.19727 H 726.1582 v 0.0156 h -0.0156 v 29.36328 h 0.0156 v 0.0195 h 11.32227 v 28.19726 H 726.1582 v 0.0176 h -0.0156 v 29.36133 h 0.0156 v 0.0156 h 11.32227 v 28.19922 H 726.1582 v 0.0156 h -0.0156 v 29.36132 h 0.0156 v 0.0176 h 11.32227 v 28.19727 H 726.1582 v 0.0176 h -0.0156 v 29.36328 h 0.0156 v 0.0156 h 11.32227 v 28.19723 H 726.1582 v 0.018 h -0.0156 v 29.3613 h 0.0156 v 0.016 h 11.32227 v 28.1972 H 726.1582 v 0.018 h -0.0156 v 29.3613 h 0.0156 v 0.02 h 11.32227 v 28.1914 H 726.1582 v 0.016 h -0.0156 v 29.3633 h 0.0156 v 0.016 h 11.32227 v 28.1973 H 726.1582 v 0.018 h -0.0156 v 29.3652 h 0.0156 v 0.016 h 11.32227 v 28.1973 H 726.1582 v 0.018 h -0.0156 v 29.3593 h 0.0156 v 0.016 h 39.62305 v -0.016 h 0.0156 v -11.3222 h 38.45703 v 11.3222 h 0.0156 v 0.016 h 47.17969 v -0.016 h 0.0156 V 679.125 h -0.0156 v -0.0156 h -46.59766 v -11.32227 h -0.0156 v -0.0156 z"
       style="stroke:#000000;stroke-width:1.88976377956;fill:none" />
    <path
       id="path1031"
       transform="translate(0,-351.49603)"
       d="m 917.32227,667.79102 v 0.2832 11.05078 h -36.86524 v 575.084 h 36.86524 v 11.334 h 28.91406 v -11.334 h 33.05469 v -124.2598 h 11.30078 v -28.9121 H 979.29102 V 977.34375 H 990.5918 V 948.43164 H 979.29102 V 824.74023 H 990.5918 V 795.82617 H 979.29102 V 679.125 h -33.05469 v -11.33398 z"
       style="stroke:#000000;stroke-width:1.88976377956;fill:none" />
    <path
       id="path1029"
       transform="translate(0,-351.49603)"
       d="m 1149.4727,711.44727 v 36.86328 h -11.334 v 28.91406 h 11.334 v 33.05469 h 64.8183 v -33.05469 h 11.334 v -28.91406 h -0.2832 -11.0508 v -36.86328 z"
       style="stroke:#000000;stroke-width:1.88976377956;fill:none" />
    <path
       id="path1027"
       transform="translate(0,-351.49603)"
       d="m 1151.4492,850.82812 v 29.43946 h -11.334 v 28.91211 h 11.334 v 40.48047 h 78.084 v -40.48047 h 11.334 v -28.91211 h -0.2852 -11.0488 v -29.43946 z"
       style="stroke:#000000;stroke-width:1.88976377956;fill:none" />
    <path
       id="path1025"
       transform="translate(0,-351.49603)"
       d="m 1179.8613,964.23047 v 11.33398 h -33.0898 v 125.20505 h -11.336 v 28.9141 h 0.2833 11.0527 v 124.2578 h 33.0898 v 11.334 h 28.9121 v -11.334 h 36.834 V 975.56445 h -36.834 v -11.33398 z"
       style="stroke:#000000;stroke-width:1.88976377956;fill:none" />
    <path
       id="path1023"
       transform="translate(0,-351.49603)"
       d="m 49.513672,1158.3242 v 0.016 h -0.01563 v 39.6211 h 0.01563 v 0.016 h 11.322266 v 38.457 H 49.513672 v 0.018 h -0.01563 v 32.0664 h 0.01563 v 0.016 H 511.17969 v -0.016 h 0.0176 v -31.4824 h 11.32226 v -0.02 h 0.0156 v -39.6211 h -0.0156 v -0.016 h -11.32226 v -39.0391 h -0.0176 v -0.016 h -17.01953 v 0.016 h -0.0156 v 11.3223 h -27.19141 v -11.3223 h -0.0176 v -0.016 h -28.35547 v 0.016 h -0.0176 v 11.3223 h -27.19336 v -11.3223 h -0.0156 v -0.016 h -28.35743 v 0.016 h -0.0176 v 11.3223 h -27.18946 v -11.3223 h -0.0156 v -0.016 h -28.35938 v 0.016 h -0.0137 v 11.3223 h -27.19336 v -11.3223 h -0.0156 v -0.016 h -28.35352 v 0.016 h -0.0176 v 11.3223 h -27.18945 v -11.3223 h -0.0156 v -0.016 h -28.35937 v 0.016 h -0.0156 v 11.3223 h -27.18945 v -11.3223 h -0.0156 v -0.016 h -28.35938 v 0.016 h -0.0176 v 11.3223 h -27.18945 v -11.3223 h -0.0156 v -0.016 h -28.35937 v 0.016 h -0.0156 v 11.3223 H 77.888672 v -11.3223 h -0.01563 v -0.016 z"
       style="stroke:#000000;stroke-width:1.88976377956;fill:none" />
    <path
       id="path1018"
       transform="translate(0,-351.49603)"
       d="m 558.61523,1167.6133 v 29.4394 h -11.33398 v 28.9141 h 11.33398 v 40.4805 h 78.08399 v -40.4805 h 11.33398 v -28.9141 h -0.28515 -11.04883 v -29.4394 z"
       style="stroke:#000000;stroke-width:1.88976377956;fill:none" />
    <path
       style="stroke:#ff0000;stroke-width:1.88976377956;fill:none"
       d="m 771.13477,957.48633 v 10.77148 h 27.77929 v -10.77148 z"
       transform="translate(0,-351.49603)"
       id="path917" />
    <path
       id="path922"
       transform="translate(0,-351.49603)"
       d="m 198.13477,470.96484 v 27.7793 h 10.77148 v -27.7793 z"
       style="stroke:#ff0000;stroke-width:1.88976377956;fill:none" />
    <path
       style="stroke:#ff0000;stroke-width:1.88976377956;fill:none"
       d="m 122.54297,470.96484 v 27.7793 h 10.77148 v -27.7793 z"
       transform="translate(0,-351.49603)"
       id="path921" />
    <path
       style="stroke:#ff0000;stroke-width:1.88976377956;fill:none"
       d="m 214.50586,1203.2832 v 27.7793 h 10.77148 v -27.7793 z"
       transform="translate(0,-351.49603)"
       id="path937" />
    <path
       id="path936"
       transform="translate(0,-351.49603)"
       d="m 138.91602,1203.2832 v 27.7793 h 10.77148 v -27.7793 z"
       style="stroke:#ff0000;stroke-width:1.88976377956;fill:none" />
    <path
       style="stroke:#ff0000;stroke-width:1.88976377956;fill:none"
       d="m 1055.8984,957.14648 v 10.77149 h 27.7793 v -10.77149 z"
       transform="translate(0,-351.49603)"
       id="path942" />
    <path
       id="path916"
       transform="translate(0,-351.49603)"
       d="m 1055.8984,875.89648 v 10.77149 h 27.7793 v -10.77149 z"
       style="stroke:#ff0000;stroke-width:1.88976377956;fill:none" />
    <path
       id="path924"
       transform="translate(0,-351.49603)"
       d="m 384.27539,470.96484 v 27.7793 h 10.77149 v -27.7793 z"
       style="stroke:#ff0000;stroke-width:1.88976377956;fill:none" />
    <path
       style="stroke:#ff0000;stroke-width:1.88976377956;fill:none"
       d="m 478.57227,841.48633 v 10.77148 h 27.77929 v -10.77148 z"
       transform="translate(0,-351.49603)"
       id="path934" />
    <path
       id="path929"
       transform="translate(0,-351.49603)"
       d="m 261.07031,985.58789 v 27.77931 h 10.77149 v -27.77931 z"
       style="stroke:#ff0000;stroke-width:1.88976377956;fill:none" />
    <path
       id="path927"
       transform="translate(0,-351.49603)"
       d="m 261.07031,680.37695 v 27.7793 h 10.77149 v -27.7793 z"
       style="stroke:#ff0000;stroke-width:1.88976377956;fill:none" />
    <path
       style="stroke:#ff0000;stroke-width:1.88976377956;fill:none"
       d="m 261.07031,832.98242 v 27.7793 h 10.77149 v -27.7793 z"
       transform="translate(0,-351.49603)"
       id="path928" />
    <path
       style="stroke:#ff0000;stroke-width:1.88976377956;fill:none"
       d="m 336.66211,985.58789 v 27.77931 h 10.77148 v -27.77931 z"
       transform="translate(0,-351.49603)"
       id="path932" />
    <path
       style="stroke:#ff0000;stroke-width:1.88976377956;fill:none"
       d="m 336.66211,680.37695 v 27.7793 h 10.77148 v -27.7793 z"
       transform="translate(0,-351.49603)"
       id="path930" />
    <path
       id="path931"
       transform="translate(0,-351.49603)"
       d="m 336.66211,832.98242 v 27.7793 h 10.77148 v -27.7793 z"
       style="stroke:#ff0000;stroke-width:1.88976377956;fill:none" />
    <path
       id="path925"
       transform="translate(0,-351.49603)"
       d="m 541.89844,336.2793 v 27.77929 h 10.77148 V 336.2793 Z"
       style="stroke:#ff0000;stroke-width:1.88976377956;fill:none" />
    <path
       style="stroke:#ff0000;stroke-width:1.88976377956;fill:none"
       d="m 448.82812,336.2793 v 27.77929 h 10.77149 V 336.2793 Z"
       transform="translate(0,-351.49603)"
       id="path920" />
    <path
       style="stroke:#ff0000;stroke-width:1.88976377956;fill:none"
       d="m 291.20508,470.96484 v 27.7793 h 10.77148 v -27.7793 z"
       transform="translate(0,-351.49603)"
       id="path923" />
    <path
       id="path933"
       transform="translate(0,-351.49603)"
       d="m 429.73242,688.88477 v 27.77929 h 10.77149 v -27.77929 z"
       style="stroke:#ff0000;stroke-width:1.88976377956;fill:none" />
    <path
       id="path935"
       transform="translate(0,-351.49603)"
       d="m 522.80273,688.88477 v 27.77929 h 10.77149 v -27.77929 z"
       style="stroke:#ff0000;stroke-width:1.88976377956;fill:none" />
    <path
       id="path919"
       transform="translate(0,-351.49603)"
       d="m 78.857422,848.94336 v 10.77148 h 27.779298 v -10.77148 z"
       style="stroke:#ff0000;stroke-width:1.88976377956;fill:none" />
    <path
       style="stroke:#ff0000;stroke-width:1.88976377956;fill:none"
       d="m 78.857422,695.13086 v 10.77148 h 27.779298 v -10.77148 z"
       transform="translate(0,-351.49603)"
       id="path918" />
    <path
       style="stroke:#ff0000;stroke-width:1.88976377956;fill:none"
       d="m 78.857422,1002.7578 v 10.7715 h 27.779298 v -10.7715 z"
       transform="translate(0,-351.49603)"
       id="path926" />
    <path
       id="path940"
       transform="translate(0,-351.49603)"
       d="m 917.88867,876.25195 v 10.77149 h 27.78125 v -10.77149 z"
       style="stroke:#ff0000;stroke-width:1.88976377956;fill:none" />
    <path
       style="stroke:#ff0000;stroke-width:1.88976377956;fill:none"
       d="m 910.46484,962.97461 v 10.77148 h 27.7793 v -10.77148 z"
       transform="translate(0,-351.49603)"
       id="path941" />
    <path
       style="stroke:#ff0000;stroke-width:1.88976377956;fill:none"
       d="m 910.46484,809.16211 v 10.77148 h 27.7793 v -10.77148 z"
       transform="translate(0,-351.49603)"
       id="path939" />
    <path
       id="path938"
       transform="translate(0,-351.49603)"
       d="m 910.46484,1116.7871 v 10.7715 h 27.7793 v -10.7715 z"
       style="stroke:#ff0000;stroke-width:1.88976377956;fill:none" />
    <path
       inkscape:connector-curvature="0"
       id="path263"
       style="font-style:normal;font-weight:normal;font-size:medium;line-height:1.25;font-family:sans-serif;letter-spacing:0px;word-spacing:0px;fill:#000000;fill-opacity:1;stroke:none"
       d="m 1216.3417,412.73768 h 1.0742 V 409.03 l -1.1686,0.23437 v -0.59896 l 1.1621,-0.23437 h 0.6575 v 4.30664 h 1.0743 v 0.55338 h -2.7995 z" />
    <path
       inkscape:connector-curvature="0"
       id="path265"
       style="font-style:normal;font-weight:normal;font-size:medium;line-height:1.25;font-family:sans-serif;letter-spacing:0px;word-spacing:0px;fill:#000000;fill-opacity:1;stroke:none"
       d="m 981.7975,766.23171 h 2.295 v 0.55338 h -3.086 v -0.55338 q 0.3744,-0.38737 1.0189,-1.03841 0.6478,-0.6543 0.8138,-0.8431 0.3158,-0.35482 0.4394,-0.59896 0.127,-0.2474 0.127,-0.48503 0,-0.38737 -0.2734,-0.63151 -0.2702,-0.24414 -0.7064,-0.24414 -0.3093,0 -0.6543,0.10743 -0.3418,0.10742 -0.7324,0.32552 v -0.66407 q 0.3971,-0.1595 0.7422,-0.24088 0.345,-0.0814 0.6315,-0.0814 0.7552,0 1.2044,0.3776 0.4492,0.37761 0.4492,1.00912 0,0.29948 -0.1139,0.56966 -0.1107,0.26693 -0.4069,0.63151 -0.081,0.0944 -0.5176,0.54687 -0.4362,0.44922 -1.2305,1.25977 z" />
    <path
       inkscape:connector-curvature="0"
       id="path267"
       style="font-style:normal;font-weight:normal;font-size:medium;line-height:1.25;font-family:sans-serif;letter-spacing:0px;word-spacing:0px;fill:#000000;fill-opacity:1;stroke:none"
       d="m 553.61611,860.30569 q 0.472,0.10091 0.7357,0.41992 0.26689,0.31901 0.26689,0.78776 0,0.7194 -0.4947,1.11329 -0.4948,0.39388 -1.40629,0.39388 -0.30601,0 -0.6315,-0.0618 -0.3223,-0.0586 -0.6673,-0.17904 v -0.63477 q 0.2734,0.15951 0.5989,0.24089 0.3256,0.0814 0.6804,0.0814 0.6185,0 0.9407,-0.24414 0.3255,-0.24414 0.3255,-0.70964 0,-0.42968 -0.3027,-0.67057 -0.2995,-0.24414 -0.8366,-0.24414 h -0.5664 v -0.54036 h 0.5925 q 0.485,0 0.7422,-0.19206 0.2571,-0.19531 0.2571,-0.5599 0,-0.37435 -0.2669,-0.57291 -0.2637,-0.20183 -0.7585,-0.20183 -0.2702,0 -0.5794,0.0586 -0.3092,0.0586 -0.6803,0.18229 v -0.58594 q 0.3743,-0.10417 0.6998,-0.15625 0.3288,-0.0521 0.6185,-0.0521 0.7487,0 1.1849,0.34179 0.4362,0.33855 0.4362,0.91797 0,0.40365 -0.2311,0.6836 -0.2311,0.27669 -0.6576,0.38411 z" />
    <path
       inkscape:connector-curvature="0"
       id="path269"
       style="font-style:normal;font-weight:normal;font-size:medium;line-height:1.25;font-family:sans-serif;letter-spacing:0px;word-spacing:0px;fill:#000000;fill-opacity:1;stroke:none"
       d="m 1045.9782,609.86516 -1.6602,2.5944 h 1.6602 z m -0.1726,-0.57292 h 0.8269 v 3.16732 h 0.6933 v 0.54687 h -0.6933 v 1.14583 h -0.6543 v -1.14583 h -2.1941 v -0.63476 z" />
    <path
       inkscape:connector-curvature="0"
       id="path271"
       style="font-style:normal;font-weight:normal;font-size:medium;line-height:1.25;font-family:sans-serif;letter-spacing:0px;word-spacing:0px;fill:#000000;fill-opacity:1;stroke:none"
       d="m 1143.7559,409.0045 h 2.5814 v 0.55338 h -1.9792 v 1.19141 q 0.1433,-0.0488 0.2865,-0.0716 0.1432,-0.026 0.2865,-0.026 0.8138,0 1.289,0.44597 0.4753,0.44596 0.4753,1.20768 0,0.7845 -0.4883,1.2207 -0.4883,0.43295 -1.377,0.43295 -0.3059,0 -0.625,-0.0521 -0.3157,-0.0521 -0.6543,-0.15625 v -0.66081 q 0.293,0.15951 0.6055,0.23763 0.3125,0.0781 0.6608,0.0781 0.5632,0 0.892,-0.29622 0.3287,-0.29623 0.3287,-0.80404 0,-0.50781 -0.3287,-0.80404 -0.3288,-0.29622 -0.892,-0.29622 -0.2636,0 -0.5273,0.0586 -0.2604,0.0586 -0.5339,0.18229 z" />
    <path
       inkscape:connector-curvature="0"
       id="path273"
       style="font-style:normal;font-weight:normal;font-size:medium;line-height:1.25;font-family:sans-serif;letter-spacing:0px;word-spacing:0px;fill:#000000;fill-opacity:1;stroke:none"
       d="m 657.8399,-2.5386027 q -0.4427,0 -0.7032,0.3027 -0.2571,0.3027997 -0.2571,0.8300997 0,0.5241 0.2571,0.8301 0.2605,0.3027 0.7032,0.3027 0.4427,0 0.6998,-0.3027 0.2605,-0.306 0.2605,-0.8301 0,-0.5273 -0.2605,-0.8300997 -0.2571,-0.3027 -0.6998,-0.3027 z m 1.3053,-2.0606 v 0.599 q -0.2474,-0.1172 -0.5013,-0.179 -0.2506,-0.062 -0.498,-0.062 -0.6511,0 -0.9961,0.4394 -0.3418,0.4395 -0.3907,1.3281 0.1921,-0.2832 0.4818,-0.4329 0.2897,-0.153 0.638,-0.153 0.7325,0 1.1556,0.446 0.4265,0.4427 0.4265,1.2075997 0,0.7487 -0.4427,1.2012 -0.4428,0.4525 -1.1784,0.4525 -0.8431,0 -1.2891,-0.6445 -0.446,-0.6478 -0.446,-1.8749997 0,-1.1524 0.5469,-1.836 0.5469,-0.6868 1.4681,-0.6868 0.2474,0 0.4981,0.049 0.2539,0.049 0.5273,0.1465 z" />
    <path
       inkscape:connector-curvature="0"
       id="path275"
       style="font-style:normal;font-weight:normal;font-size:medium;line-height:1.25;font-family:sans-serif;letter-spacing:0px;word-spacing:0px;fill:#000000;fill-opacity:1;stroke:none"
       d="m 1119.6436,455.745 h 3.125 v 0.27995 l -1.7643,4.58007 h -0.6869 l 1.6602,-4.30664 h -2.334 z" />
    <path
       inkscape:connector-curvature="0"
       id="path277"
       style="font-style:normal;font-weight:normal;font-size:medium;line-height:1.25;font-family:sans-serif;letter-spacing:0px;word-spacing:0px;fill:#000000;fill-opacity:1;stroke:none"
       d="m 220.89991,887.7224 q -0.46875,0 -0.73893,0.2506 -0.26693,0.2507 -0.26693,0.6902 0,0.4394 0.26693,0.6901 0.27018,0.2506 0.73893,0.2506 0.46875,0 0.73894,-0.2506 0.27018,-0.254 0.27018,-0.6901 0,-0.4395 -0.27018,-0.6902 -0.26693,-0.2506 -0.73894,-0.2506 z m -0.65755,-0.2799 q -0.42318,-0.1042 -0.66081,-0.3939 -0.23437,-0.2897 -0.23437,-0.7064 0,-0.5827 0.41341,-0.9212 0.41667,-0.3386 1.13932,-0.3386 0.72591,0 1.13933,0.3386 0.41341,0.3385 0.41341,0.9212 0,0.4167 -0.23763,0.7064 -0.23438,0.2897 -0.6543,0.3939 0.47526,0.1106 0.73893,0.4329 0.26693,0.3223 0.26693,0.7878 0,0.7063 -0.43294,1.0839 -0.42969,0.3777 -1.23373,0.3777 -0.80403,0 -1.23698,-0.3777 -0.42968,-0.3776 -0.42968,-1.0839 0,-0.4655 0.26692,-0.7878 0.26693,-0.3223 0.74219,-0.4329 z m -0.24088,-1.0385 q 0,0.3777 0.23437,0.5892 0.23763,0.2116 0.66406,0.2116 0.42318,0 0.66081,-0.2116 0.24089,-0.2115 0.24089,-0.5892 0,-0.3776 -0.24089,-0.5892 -0.23763,-0.2115 -0.66081,-0.2115 -0.42643,0 -0.66406,0.2115 -0.23437,0.2116 -0.23437,0.5892 z" />
    <path
       inkscape:connector-curvature="0"
       id="path279"
       style="font-style:normal;font-weight:normal;font-size:medium;line-height:1.25;font-family:sans-serif;letter-spacing:0px;word-spacing:0px;fill:#000000;fill-opacity:1;stroke:none"
       d="m 527.21084,375.51269 v -0.59896 q 0.2474,0.11719 0.5013,0.17904 0.25391,0.0618 0.49805,0.0618 0.65104,0 0.99284,-0.4362 0.34505,-0.43945 0.39388,-1.33138 -0.1888,0.27995 -0.47852,0.42969 -0.28971,0.14974 -0.64127,0.14974 -0.72917,0 -1.1556,-0.43945 -0.42318,-0.44271 -0.42318,-1.20769 0,-0.74869 0.44271,-1.20117 0.44271,-0.45247 1.17839,-0.45247 0.84309,0 1.2858,0.64778 0.44597,0.64454 0.44597,1.875 0,1.14909 -0.54688,1.83594 -0.54362,0.6836 -1.46484,0.6836 -0.2474,0 -0.5013,-0.0488 -0.25391,-0.0488 -0.52735,-0.14649 z m 1.3086,-2.06054 q 0.4427,0 0.69987,-0.30274 0.26041,-0.30273 0.26041,-0.83008 0,-0.52408 -0.26041,-0.82682 -0.25717,-0.30599 -0.69987,-0.30599 -0.44271,0 -0.70313,0.30599 -0.25716,0.30274 -0.25716,0.82682 0,0.52735 0.25716,0.83008 0.26042,0.30274 0.70313,0.30274 z" />
    <path
       inkscape:connector-curvature="0"
       id="path281"
       style="font-style:normal;font-weight:normal;font-size:medium;line-height:1.25;font-family:sans-serif;letter-spacing:0px;word-spacing:0px;fill:#000000;fill-opacity:1;stroke:none"
       d="m 295.92935,153.26852 -0.89193,2.41862 h 1.78711 z m -0.37109,-0.64778 h 0.74544 l 1.85221,4.86002 h -0.68359 l -0.44271,-1.24674 h -2.19076 l -0.4427,1.24674 h -0.69336 z" />
    <path
       d="m 956.71804,532.56771 h 1.0742 v -3.70768 l -1.1686,0.23437 v -0.59896 l 1.1621,-0.23437 h 0.65746 v 4.30664 h 1.0743 v 0.55338 h -2.79946 z"
       style="font-style:normal;font-weight:normal;font-size:medium;line-height:1.25;font-family:sans-serif;letter-spacing:0px;word-spacing:0px;fill:#000000;fill-opacity:1;stroke:none"
       id="path294"
       inkscape:connector-curvature="0" />
    <path
       d="m 265.57863,671.71139 h 2.29493 v 0.55338 h -3.08594 v -0.55338 q 0.37435,-0.38737 1.01888,-1.03841 0.64779,-0.6543 0.8138,-0.8431 0.31576,-0.35482 0.43945,-0.59896 0.12696,-0.2474 0.12696,-0.48503 0,-0.38737 -0.27344,-0.63151 -0.27018,-0.24414 -0.70638,-0.24414 -0.30925,0 -0.6543,0.10743 -0.34179,0.10742 -0.73242,0.32552 v -0.66407 q 0.39714,-0.1595 0.74219,-0.24088 0.34505,-0.0814 0.63151,-0.0814 0.75521,0 1.20443,0.3776 0.44921,0.37761 0.44921,1.00912 0,0.29948 -0.11393,0.56966 -0.11067,0.26693 -0.4069,0.63151 -0.0814,0.0944 -0.51758,0.54687 -0.43619,0.44922 -1.23047,1.25977 z"
       style="font-style:normal;font-weight:normal;font-size:medium;line-height:1.25;font-family:sans-serif;letter-spacing:0px;word-spacing:0px;fill:#000000;fill-opacity:1;stroke:none"
       id="path296"
       inkscape:connector-curvature="0" />
    <path
       d="m 361.29185,-2.2087027 -1.6602,2.5943997 h 1.6602 z m -0.1725,-0.5729 h 0.8268 V 0.385697 h 0.6933 v 0.5469 h -0.6933 v 1.1458 h -0.6543 v -1.1458 h -2.194 v -0.6347 z"
       style="font-style:normal;font-weight:normal;font-size:medium;line-height:1.25;font-family:sans-serif;letter-spacing:0px;word-spacing:0px;fill:#000000;fill-opacity:1;stroke:none"
       id="path298"
       inkscape:connector-curvature="0" />
    <path
       d="m 946.05354,463.22174 q 0.472,0.10091 0.7357,0.41992 0.2669,0.31901 0.2669,0.78776 0,0.7194 -0.4947,1.11329 -0.4948,0.39388 -1.4063,0.39388 -0.306,0 -0.6315,-0.0618 -0.3223,-0.0586 -0.6673,-0.17904 v -0.63477 q 0.2734,0.15951 0.5989,0.24089 0.3256,0.0814 0.6804,0.0814 0.6185,0 0.9407,-0.24414 0.3255,-0.24414 0.3255,-0.70964 0,-0.42968 -0.3027,-0.67057 -0.2995,-0.24414 -0.8366,-0.24414 h -0.5664 v -0.54036 h 0.5925 q 0.485,0 0.7422,-0.19206 0.2571,-0.19531 0.2571,-0.5599 0,-0.37435 -0.2669,-0.57291 -0.2637,-0.20183 -0.7585,-0.20183 -0.2702,0 -0.5794,0.0586 -0.3092,0.0586 -0.6803,0.18229 v -0.58594 q 0.3743,-0.10417 0.6998,-0.15625 0.3288,-0.0521 0.6185,-0.0521 0.7487,0 1.1849,0.34179 0.4362,0.33855 0.4362,0.91797 0,0.40365 -0.2311,0.6836 -0.2311,0.27669 -0.6576,0.38411 z"
       style="font-style:normal;font-weight:normal;font-size:medium;line-height:1.25;font-family:sans-serif;letter-spacing:0px;word-spacing:0px;fill:#000000;fill-opacity:1;stroke:none"
       id="path304"
       inkscape:connector-curvature="0" />
    <path
       d="m 1191.0954,618.57768 -0.8919,2.41862 h 1.7871 z m -0.3711,-0.64778 h 0.7454 l 1.8523,4.86002 h -0.6836 l -0.4427,-1.24674 h -2.1908 l -0.4427,1.24674 h -0.6934 z"
       style="font-style:normal;font-weight:normal;font-size:medium;line-height:1.25;font-family:sans-serif;letter-spacing:0px;word-spacing:0px;fill:#000000;fill-opacity:1;stroke:none"
       id="path306"
       inkscape:connector-curvature="0" />
    <path
       d="m 1044.3073,526.47883 h 2.5814 v 0.55338 h -1.9792 v 1.19141 q 0.1433,-0.0488 0.2865,-0.0716 0.1432,-0.026 0.2865,-0.026 0.8138,0 1.289,0.44597 0.4753,0.44596 0.4753,1.20768 0,0.7845 -0.4883,1.2207 -0.4883,0.43295 -1.377,0.43295 -0.3059,0 -0.625,-0.0521 -0.3157,-0.0521 -0.6543,-0.15625 v -0.66081 q 0.293,0.15951 0.6055,0.23763 0.3125,0.0781 0.6608,0.0781 0.5632,0 0.892,-0.29622 0.3287,-0.29623 0.3287,-0.80404 0,-0.50781 -0.3287,-0.80404 -0.3288,-0.29622 -0.892,-0.29622 -0.2636,0 -0.5273,0.0586 -0.2604,0.0586 -0.5339,0.18229 z"
       style="font-style:normal;font-weight:normal;font-size:medium;line-height:1.25;font-family:sans-serif;letter-spacing:0px;word-spacing:0px;fill:#000000;fill-opacity:1;stroke:none"
       id="path308"
       inkscape:connector-curvature="0" />
    <path
       d="m 339.86115,364.08038 h 3.125 v 0.27995 l -1.76432,4.58007 h -0.68685 l 1.66015,-4.30664 h -2.33398 z"
       style="font-style:normal;font-weight:normal;font-size:medium;line-height:1.25;font-family:sans-serif;letter-spacing:0px;word-spacing:0px;fill:#000000;fill-opacity:1;stroke:none"
       id="path310"
       inkscape:connector-curvature="0" />
    <path
       d="m 186.33225,-55.440438 h 0.59896 q -0.11719,0.2474 -0.17904,0.5013 -0.0618,0.2539 -0.0618,0.4981 0,0.651 0.4362,0.9928 0.43945,0.3451 1.33138,0.3939 -0.27995,-0.1888 -0.42969,-0.4785 -0.14974,-0.2898 -0.14974,-0.6413 0,-0.7292 0.43945,-1.1556 0.44271,-0.4232 1.20769,-0.4232 0.74869,0 1.20117,0.4427 0.45247,0.4427 0.45247,1.1784 0,0.8431 -0.64778,1.2858 -0.64454,0.446 -1.875,0.446 -1.14909,0 -1.83594,-0.5469 -0.6836,-0.5436 -0.6836,-1.4648 0,-0.2474 0.0488,-0.5013 0.0488,-0.254 0.14649,-0.5274 z m 2.06054,1.3086 q 0,0.4427 0.30274,0.6999 0.30273,0.2604 0.83008,0.2604 0.52408,0 0.82682,-0.2604 0.30599,-0.2572 0.30599,-0.6999 0,-0.4427 -0.30599,-0.7031 -0.30274,-0.2572 -0.82682,-0.2572 -0.52735,0 -0.83008,0.2572 -0.30274,0.2604 -0.30274,0.7031 z"
       style="font-style:normal;font-weight:normal;font-size:medium;line-height:1.25;font-family:sans-serif;letter-spacing:0px;word-spacing:0px;fill:#000000;fill-opacity:1;stroke:none"
       id="path312"
       inkscape:connector-curvature="0" />
    <path
       d="m 1070.8384,905.13782 q -0.4688,0 -0.7389,0.25065 -0.267,0.25065 -0.267,0.69011 0,0.43945 0.267,0.6901 0.2701,0.25065 0.7389,0.25065 0.4687,0 0.7389,-0.25065 0.2702,-0.25391 0.2702,-0.6901 0,-0.43946 -0.2702,-0.69011 -0.2669,-0.25065 -0.7389,-0.25065 z m -0.6576,-0.27995 q -0.4231,-0.10416 -0.6608,-0.39388 -0.2343,-0.28971 -0.2343,-0.70638 0,-0.58268 0.4134,-0.92122 0.4166,-0.33854 1.1393,-0.33854 0.7259,0 1.1393,0.33854 0.4134,0.33854 0.4134,0.92122 0,0.41667 -0.2376,0.70638 -0.2344,0.28972 -0.6543,0.39388 0.4753,0.11068 0.7389,0.43295 0.267,0.32226 0.267,0.78776 0,0.70638 -0.433,1.08398 -0.4297,0.37761 -1.2337,0.37761 -0.804,0 -1.237,-0.37761 -0.4297,-0.3776 -0.4297,-1.08398 0,-0.4655 0.267,-0.78776 0.2669,-0.32227 0.7421,-0.43295 z m -0.2408,-1.03841 q 0,0.37761 0.2343,0.5892 0.2377,0.21158 0.6641,0.21158 0.4232,0 0.6608,-0.21158 0.2409,-0.21159 0.2409,-0.5892 0,-0.3776 -0.2409,-0.58919 -0.2376,-0.21159 -0.6608,-0.21159 -0.4264,0 -0.6641,0.21159 -0.2343,0.21159 -0.2343,0.58919 z"
       style="font-style:normal;font-weight:normal;font-size:medium;line-height:1.25;font-family:sans-serif;letter-spacing:0px;word-spacing:0px;fill:#000000;fill-opacity:1;stroke:none"
       id="path314"
       inkscape:connector-curvature="0" />
    <path
       d="m 754.7282,611.87061 q -0.4427,0 -0.7032,0.30273 -0.2571,0.30274 -0.2571,0.83008 0,0.52409 0.2571,0.83008 0.2605,0.30273 0.7032,0.30273 0.4427,0 0.6998,-0.30273 0.2605,-0.30599 0.2605,-0.83008 0,-0.52734 -0.2605,-0.83008 -0.2571,-0.30273 -0.6998,-0.30273 z m 1.3053,-2.06055 v 0.59896 q -0.2474,-0.11719 -0.5013,-0.17904 -0.2506,-0.0618 -0.498,-0.0618 -0.6511,0 -0.9961,0.43946 -0.3418,0.43945 -0.3907,1.32812 0.1921,-0.2832 0.4818,-0.43294 0.2897,-0.153 0.638,-0.153 0.7325,0 1.1556,0.44597 0.4265,0.44271 0.4265,1.20768 0,0.7487 -0.4427,1.20117 -0.4428,0.45248 -1.1784,0.45248 -0.8431,0 -1.2891,-0.64454 -0.446,-0.64778 -0.446,-1.875 0,-1.15234 0.5469,-1.83593 0.5469,-0.68685 1.4681,-0.68685 0.2474,0 0.4981,0.0488 0.2539,0.0488 0.5273,0.14648 z"
       style="font-style:normal;font-weight:normal;font-size:medium;line-height:1.25;font-family:sans-serif;letter-spacing:0px;word-spacing:0px;fill:#000000;fill-opacity:1;stroke:none"
       id="path316"
       inkscape:connector-curvature="0" />
    <rect
       style="fill:#000000;fill-opacity:0.46766172;stroke:none;stroke-width:1.88976383;stroke-miterlimit:4;stroke-dasharray:none;stroke-opacity:1"
       id="rect320"
       width="453.55841"
       height="7.5590553"
       x="44.763592"
       y="74.763596" />
    <rect
       style="fill:#000000;fill-opacity:0.46766172;stroke:none;stroke-width:1.88976383;stroke-miterlimit:4;stroke-dasharray:none;stroke-opacity:1"
       id="rect1133"
       width="7.5590553"
       height="578.28284"
       x="41.559444"
       y="210.11687" />
    <rect
       y="327.89679"
       x="836.04742"
       height="578.28284"
       width="7.5590553"
       id="rect1135"
       style="fill:#000000;fill-opacity:0.46766172;stroke:none;stroke-width:1.88976383;stroke-miterlimit:4;stroke-dasharray:none;stroke-opacity:1" />
    <rect
       style="fill:none;fill-opacity:1;stroke:#000000;stroke-width:1.88976383;stroke-miterlimit:4;stroke-dasharray:none;stroke-opacity:1"
       id="rect1143"
       width="662.9126"
       height="1016.466"
       x="27.737659"
       y="-71.549278" />
    <rect
       y="-71.549278"
       x="707.73767"
       height="1016.466"
       width="662.9126"
       id="rect1159"
       style="fill:none;fill-opacity:1;stroke:#000000;stroke-width:1.88976383;stroke-miterlimit:4;stroke-dasharray:none;stroke-opacity:1" />
  </g>
</svg>
